<svg id="Layer_5" enable-background="new 0 0 64 64" height="512" viewBox="0 0 64 64" width="512" xmlns="http://www.w3.org/2000/svg"><path d="m29 23c-6.617 0-12 5.383-12 12s5.383 12 12 12 12-5.383 12-12-5.383-12-12-12zm0 22c-5.514 0-10-4.486-10-10s4.486-10 10-10 10 4.486 10 10-4.486 10-10 10z"/><path d="m33 28.586-6 6-2-2-4.414 4.414 6.414 6.414 10.414-10.414zm-9.586 8.414 1.586-1.586 2 2 6-6 1.586 1.586-7.586 7.586z"/><path d="m58 1h-38c-2.757 0-5 2.243-5 5v21.271c-1.271 2.293-2 4.926-2 7.729 0 3.285.998 6.34 2.702 8.884l-2.202 2.202-1.5-1.5-9.464 9.464c-.991.991-1.536 2.307-1.536 3.707 0 2.891 2.352 5.243 5.243 5.243 1.4 0 2.717-.545 3.707-1.536l9.464-9.464-1.5-1.5 2.202-2.202c2.544 1.704 5.599 2.702 8.884 2.702 2.802 0 5.436-.729 7.729-2h19.271v-3c0-2.757-2.243-5-5-5v-4h7c2.757 0 5-2.243 5-5v-26c0-2.757-2.243-5-5-5zm-49.464 59.05c-.613.613-1.427.95-2.293.95-1.788 0-3.243-1.455-3.243-3.243 0-.866.337-1.68.95-2.293l8.05-8.05 4.586 4.586zm7.964-10.964-1.586-1.586 2.022-2.022c.491.565 1.021 1.095 1.586 1.586zm-1.5-14.086c0-7.72 6.28-14 14-14s14 6.28 14 14-6.28 14-14 14-14-6.28-14-14zm26.47-10h13.53v-1c0-2.953-1.841-5.48-4.433-6.506.884-.902 1.433-2.134 1.433-3.494 0-2.757-2.243-5-5-5s-5 2.243-5 5c0 1.36.549 2.592 1.433 3.494-2.181.864-3.829 2.788-4.297 5.138-2.762-2.268-6.292-3.632-10.136-3.632-2.916 0-5.643.797-8 2.165v-14.165h36v24h-12.527c-.575-2.222-1.605-4.261-3.003-6zm5.53-8c-1.654 0-3-1.346-3-3s1.346-3 3-3 3 1.346 3 3-1.346 3-3 3zm-1 2h2c2.415 0 4.435 1.721 4.899 4h-11.798c.464-2.279 2.484-4 4.899-4zm8 27v1h-14.453c1.301-1.145 2.413-2.493 3.288-4h8.165c1.654 0 3 1.346 3 3zm-5-5h-5.178c.513-1.262.864-2.603 1.039-4h4.139zm12-9c0 1.654-1.346 3-3 3h-13c0-.679-.056-1.343-.139-2h12.139c1.103 0 2-.897 2-2v-24c0-1.103-.897-2-2-2h-36c-1.103 0-2 .897-2 2v15.53c-.723.581-1.388 1.227-2 1.923v-18.453c0-1.654 1.346-3 3-3h38c1.654 0 3 1.346 3 3z"/><path d="m23 9h2v2h-2z"/><path d="m27 9h13v2h-13z"/><path d="m23 13h17v2h-17z"/></svg>